<!-- SVG Sprite -->
<svg xmlns="http://www.w3.org/2000/svg" style="display: none;">
    <!-- Header -->
    <symbol id="sun-icon" viewBox="0 0 24 24">
        <path d="M5.64,17l-.71.71a1,1,0,0,0,0,1.41,1,1,0,0,0,1.41,0l.71-.71A1,1,0,0,0,5.64,17ZM5,12a1,1,0,0,0-1-1H3a1,1,0,0,0,0,2H4A1,1,0,0,0,5,12Zm7-7a1,1,0,0,0,1-1V3a1,1,0,0,0-2,0V4A1,1,0,0,0,12,5ZM5.64,7.05a1,1,0,0,0,.7.29,1,1,0,0,0,.71-.29,1,1,0,0,0,0-1.41l-.71-.71A1,1,0,0,0,4.93,6.34Zm12,.29a1,1,0,0,0,.7-.29l.71-.71a1,1,0,1,0-1.41-1.41L17,5.64a1,1,0,0,0,0,1.41A1,1,0,0,0,17.66,7.34ZM21,11H20a1,1,0,0,0,0,2h1a1,1,0,0,0,0-2Zm-9,8a1,1,0,0,0-1,1v1a1,1,0,0,0,2,0V20A1,1,0,0,0,12,19ZM18.36,17A1,1,0,0,0,17,18.36l.71.71a1,1,0,0,0,1.41,0,1,1,0,0,0,0-1.41ZM12,6.5A5.5,5.5,0,1,0,17.5,12,5.51,5.51,0,0,0,12,6.5Zm0,9A3.5,3.5,0,1,1,15.5,12,3.5,3.5,0,0,1,12,15.5Z" />
    </symbol>

    <symbol id="moon-icon" viewBox="0 0 24 24">
        <path d="M21.64,13a1,1,0,0,0-1.05-.14,8.05,8.05,0,0,1-3.37.73A8.15,8.15,0,0,1,9.08,5.49a8.59,8.59,0,0,1,.25-2A1,1,0,0,0,8,2.36,10.14,10.14,0,1,0,22,14.05,1,1,0,0,0,21.64,13Zm-9.5,6.69A8.14,8.14,0,0,1,7.08,5.22v.27A10.15,10.15,0,0,0,17.22,15.63a9.79,9.79,0,0,0,2.1-.22A8.11,8.11,0,0,1,12.14,19.73Z" />
    </symbol>

    <symbol id="hamburger-icon" viewBox="0 0 24 24">
        <path stroke-linecap="round" stroke-linejoin="round" stroke-width="2"
            d="M4 6h16M4 12h16M4 18h16"></path>
    </symbol>
    <!-- Header -->

    <!-- Contact Section -->
    <symbol id="subject-icon" viewBox="0 0 24 512">
        <g fill="currentColor" transform="translate(21.333333, 106.666667)">
            <path
                d="M448,2.84217094e-14 L448,298.666667 L106.666667,298.666667 L3.55271368e-15,149.333333 L106.666667,2.84217094e-14 L448,2.84217094e-14 Z M405.333333,42.6666667 L128.597333,42.6666667 L52.416,149.333333 L128.618667,256 L405.333333,256 L405.333333,42.6666667 Z M138.666667,117.333333 C156.339779,117.333333 170.666667,131.660221 170.666667,149.333333 C170.666667,167.006445 156.339779,181.333333 138.666667,181.333333 C120.993555,181.333333 106.666667,167.006445 106.666667,149.333333 C106.666667,131.660221 120.993555,117.333333 138.666667,117.333333 Z M213.333333,170.666667 L362.666667,170.666667 L362.666667,213.333333 L213.333333,213.333333 L213.333333,170.666667 Z M213.333333,85.3333333 L362.666667,85.3333333 L362.666667,128 L213.333333,128 L213.333333,85.3333333 Z">
            </path>
        </g>
    </symbol>

    <symbol id="message-icon" viewBox="0 0 24 24">
        <g stroke-linejoin="round" stroke-linecap="round" stroke-width="2.5" fill="none"
            stroke="currentColor">
            <path
                d="M7 9H17M7 13H17M21 20L17.6757 18.3378C17.4237 18.2118 17.2977 18.1488 17.1656 18.1044C17.0484 18.065 16.9277 18.0365 16.8052 18.0193C16.6672 18 16.5263 18 16.2446 18H6.2C5.07989 18 4.51984 18 4.09202 17.782C3.71569 17.5903 3.40973 17.2843 3.21799 16.908C3 16.4802 3 15.9201 3 14.8V7.2C3 6.07989 3 5.51984 3.21799 5.09202C3.40973 4.71569 3.71569 4.40973 4.09202 4.21799C4.51984 4 5.0799 4 6.2 4H17.8C18.9201 4 19.4802 4 19.908 4.21799C20.2843 4.40973 20.5903 4.71569 20.782 5.09202C21 5.51984 21 6.0799 21 7.2V20Z">
            </path>
        </g>
    </symbol>
    <!-- Contact Section -->

    <!-- Ikon GitHub -->
    <symbol id="github-icon" viewBox="0 0 24 24">
        <path fill-rule="evenodd"
            d="M12 2C6.477 2 2 6.484 2 12.017c0 4.425 2.865 8.18 6.839 9.504.5.092.682-.217.682-.483 0-.237-.008-.868-.013-1.703-2.782.605-3.369-1.343-3.369-1.343-.454-1.158-1.11-1.466-1.11-1.466-.908-.62.069-.608.069-.608 1.003.07 1.531 1.032 1.531 1.032.892 1.53 2.341 1.088 2.91.832.092-.647.35-1.088.636-1.338-2.22-.253-4.555-1.113-4.555-4.951 0-1.093.39-1.988 1.029-2.688-.103-.253-.446-1.272.098-2.65 0 0 .84-.27 2.75 1.026A9.564 9.564 0 0112 6.844c.85.004 1.705.115 2.504.337 1.909-1.296 2.747-1.027 2.747-1.027.546 1.379.202 2.398.1 2.651.64.7 1.028 1.595 1.028 2.688 0 3.848-2.339 4.695-4.566 4.943.359.309.678.92.678 1.855 0 1.338-.012 2.419-.012 2.747 0 .268.18.58.688.482A10.019 10.019 0 0022 12.017C22 6.484 17.522 2 12 2z"
            clip-rule="evenodd" />
    </symbol>

    <!-- Tambahkan ikon lain di sini dengan ID unik -->
    <!-- <symbol id="twitter-icon" viewBox="0 0 24 24"> ... </symbol> -->
    <!-- <symbol id="menu-icon" viewBox="0 0 24 24"> ... </symbol> -->

</svg>